<svg id="visual" viewBox="0 0 900 600" width="900" height="600" xmlns="http://www.w3.org/2000/svg" xmlns:xlink="http://www.w3.org/1999/xlink" version="1.1"><rect x="0" y="0" width="900" height="600" fill="#F96167"></rect><defs><linearGradient id="grad1_0" x1="33.3%" y1="0%" x2="100%" y2="100%"><stop offset="20%" stop-color="#fce77d" stop-opacity="1"></stop><stop offset="80%" stop-color="#fce77d" stop-opacity="1"></stop></linearGradient></defs><defs><linearGradient id="grad1_1" x1="33.3%" y1="0%" x2="100%" y2="100%"><stop offset="20%" stop-color="#fce77d" stop-opacity="1"></stop><stop offset="80%" stop-color="#ffd56f" stop-opacity="1"></stop></linearGradient></defs><defs><linearGradient id="grad1_2" x1="33.3%" y1="0%" x2="100%" y2="100%"><stop offset="20%" stop-color="#ffc264" stop-opacity="1"></stop><stop offset="80%" stop-color="#ffd56f" stop-opacity="1"></stop></linearGradient></defs><defs><linearGradient id="grad1_3" x1="33.3%" y1="0%" x2="100%" y2="100%"><stop offset="20%" stop-color="#ffc264" stop-opacity="1"></stop><stop offset="80%" stop-color="#ffaf5e" stop-opacity="1"></stop></linearGradient></defs><defs><linearGradient id="grad1_4" x1="33.3%" y1="0%" x2="100%" y2="100%"><stop offset="20%" stop-color="#ff9c5c" stop-opacity="1"></stop><stop offset="80%" stop-color="#ffaf5e" stop-opacity="1"></stop></linearGradient></defs><defs><linearGradient id="grad1_5" x1="33.3%" y1="0%" x2="100%" y2="100%"><stop offset="20%" stop-color="#ff9c5c" stop-opacity="1"></stop><stop offset="80%" stop-color="#ff885d" stop-opacity="1"></stop></linearGradient></defs><defs><linearGradient id="grad1_6" x1="33.3%" y1="0%" x2="100%" y2="100%"><stop offset="20%" stop-color="#ff7561" stop-opacity="1"></stop><stop offset="80%" stop-color="#ff885d" stop-opacity="1"></stop></linearGradient></defs><defs><linearGradient id="grad1_7" x1="33.3%" y1="0%" x2="100%" y2="100%"><stop offset="20%" stop-color="#ff7561" stop-opacity="1"></stop><stop offset="80%" stop-color="#f96167" stop-opacity="1"></stop></linearGradient></defs><defs><linearGradient id="grad2_0" x1="0%" y1="0%" x2="66.7%" y2="100%"><stop offset="20%" stop-color="#fce77d" stop-opacity="1"></stop><stop offset="80%" stop-color="#fce77d" stop-opacity="1"></stop></linearGradient></defs><defs><linearGradient id="grad2_1" x1="0%" y1="0%" x2="66.7%" y2="100%"><stop offset="20%" stop-color="#ffd56f" stop-opacity="1"></stop><stop offset="80%" stop-color="#fce77d" stop-opacity="1"></stop></linearGradient></defs><defs><linearGradient id="grad2_2" x1="0%" y1="0%" x2="66.7%" y2="100%"><stop offset="20%" stop-color="#ffd56f" stop-opacity="1"></stop><stop offset="80%" stop-color="#ffc264" stop-opacity="1"></stop></linearGradient></defs><defs><linearGradient id="grad2_3" x1="0%" y1="0%" x2="66.7%" y2="100%"><stop offset="20%" stop-color="#ffaf5e" stop-opacity="1"></stop><stop offset="80%" stop-color="#ffc264" stop-opacity="1"></stop></linearGradient></defs><defs><linearGradient id="grad2_4" x1="0%" y1="0%" x2="66.7%" y2="100%"><stop offset="20%" stop-color="#ffaf5e" stop-opacity="1"></stop><stop offset="80%" stop-color="#ff9c5c" stop-opacity="1"></stop></linearGradient></defs><defs><linearGradient id="grad2_5" x1="0%" y1="0%" x2="66.7%" y2="100%"><stop offset="20%" stop-color="#ff885d" stop-opacity="1"></stop><stop offset="80%" stop-color="#ff9c5c" stop-opacity="1"></stop></linearGradient></defs><defs><linearGradient id="grad2_6" x1="0%" y1="0%" x2="66.7%" y2="100%"><stop offset="20%" stop-color="#ff885d" stop-opacity="1"></stop><stop offset="80%" stop-color="#ff7561" stop-opacity="1"></stop></linearGradient></defs><defs><linearGradient id="grad2_7" x1="0%" y1="0%" x2="66.7%" y2="100%"><stop offset="20%" stop-color="#f96167" stop-opacity="1"></stop><stop offset="80%" stop-color="#ff7561" stop-opacity="1"></stop></linearGradient></defs><g transform="translate(900, 0)"><path d="M0 332C-43.7 314.8 -87.4 297.6 -111 267.9C-134.6 238.3 -138.1 196.2 -178.9 178.9C-219.7 161.6 -297.9 169.2 -346.5 143.5C-395 117.8 -413.8 58.9 -432.7 0L0 0Z" fill="#fd6b64"></path><path d="M0 290.5C-38.2 275.4 -76.5 260.4 -97.1 234.4C-117.7 208.5 -120.8 171.6 -156.5 156.5C-192.3 141.4 -260.7 148 -303.1 125.6C-345.6 103.1 -362.1 51.5 -378.6 0L0 0Z" fill="#ff7f5f"></path><path d="M0 249C-32.8 236.1 -65.5 223.2 -83.2 200.9C-100.9 178.7 -103.5 147.1 -134.2 134.2C-164.8 121.2 -223.5 126.9 -259.8 107.6C-296.2 88.4 -310.4 44.2 -324.5 0L0 0Z" fill="#ff925c"></path><path d="M0 207.5C-27.3 196.7 -54.6 186 -69.4 167.5C-84.1 148.9 -86.3 122.6 -111.8 111.8C-137.3 101 -186.2 105.7 -216.5 89.7C-246.9 73.6 -258.6 36.8 -270.4 0L0 0Z" fill="#ffa65d"></path><path d="M0 166C-21.8 157.4 -43.7 148.8 -55.5 134C-67.3 119.1 -69 98.1 -89.4 89.4C-109.9 80.8 -149 84.6 -173.2 71.8C-197.5 58.9 -206.9 29.5 -216.3 0L0 0Z" fill="#ffb961"></path><path d="M0 124.5C-16.4 118 -32.8 111.6 -41.6 100.5C-50.5 89.4 -51.8 73.6 -67.1 67.1C-82.4 60.6 -111.7 63.4 -129.9 53.8C-148.1 44.2 -155.2 22.1 -162.2 0L0 0Z" fill="#ffcc69"></path><path d="M0 83C-10.9 78.7 -21.8 74.4 -27.7 67C-33.6 59.6 -34.5 49 -44.7 44.7C-54.9 40.4 -74.5 42.3 -86.6 35.9C-98.7 29.5 -103.5 14.7 -108.2 0L0 0Z" fill="#fede75"></path><path d="M0 41.5C-5.5 39.3 -10.9 37.2 -13.9 33.5C-16.8 29.8 -17.3 24.5 -22.4 22.4C-27.5 20.2 -37.2 21.1 -43.3 17.9C-49.4 14.7 -51.7 7.4 -54.1 0L0 0Z" fill="#fce77d"></path></g><g transform="translate(0, 600)"><path d="M0 -400C61.4 -397 122.9 -393.9 144.3 -348.3C165.7 -302.7 147.1 -214.6 180.3 -180.3C213.5 -146.1 298.5 -165.7 349.2 -144.7C399.9 -123.6 416.3 -61.8 432.7 0L0 0Z" fill="#fd6b64"></path><path d="M0 -350C53.7 -347.3 107.5 -344.7 126.2 -304.8C145 -264.9 128.7 -187.7 157.8 -157.8C186.8 -127.8 261.2 -145 305.6 -126.6C349.9 -108.1 364.3 -54.1 378.6 0L0 0Z" fill="#ff7f5f"></path><path d="M0 -300C46.1 -297.7 92.1 -295.4 108.2 -261.2C124.3 -227 110.3 -160.9 135.2 -135.2C160.1 -109.6 223.9 -124.3 261.9 -108.5C299.9 -92.7 312.2 -46.3 324.5 0L0 0Z" fill="#ff925c"></path><path d="M0 -250C38.4 -248.1 76.8 -246.2 90.2 -217.7C103.6 -189.2 91.9 -134.1 112.7 -112.7C133.5 -91.3 186.6 -103.6 218.3 -90.4C249.9 -77.2 260.2 -38.6 270.4 0L0 0Z" fill="#ffa65d"></path><path d="M0 -200C30.7 -198.5 61.4 -197 72.1 -174.2C82.8 -151.4 73.6 -107.3 90.2 -90.2C106.8 -73 149.3 -82.9 174.6 -72.3C200 -61.8 208.1 -30.9 216.3 0L0 0Z" fill="#ffb961"></path><path d="M0 -150C23 -148.9 46.1 -147.7 54.1 -130.6C62.1 -113.5 55.2 -80.5 67.6 -67.6C80.1 -54.8 112 -62.1 131 -54.2C150 -46.3 156.1 -23.2 162.2 0L0 0Z" fill="#ffcc69"></path><path d="M0 -100C15.4 -99.2 30.7 -98.5 36.1 -87.1C41.4 -75.7 36.8 -53.6 45.1 -45.1C53.4 -36.5 74.6 -41.4 87.3 -36.2C100 -30.9 104.1 -15.4 108.2 0L0 0Z" fill="#fede75"></path><path d="M0 -50C7.7 -49.6 15.4 -49.2 18 -43.5C20.7 -37.8 18.4 -26.8 22.5 -22.5C26.7 -18.3 37.3 -20.7 43.7 -18.1C50 -15.4 52 -7.7 54.1 0L0 0Z" fill="#fce77d"></path></g></svg>